<svg xmlns="http://www.w3.org/2000/svg" width="1180" height="520" viewBox="0 0 1180 520" font-family="Segoe UI, Helvetica, Arial, sans-serif">
<rect width="1180" height="520" fill="#f6f7f9"/>
<text x="30" y="44" font-size="30" font-weight="bold" fill="#1f4e79">desk - AFTER: all 8 slots filled (mixed brands done right)</text>
<text x="30" y="76" font-size="19" fill="#5a636c">Same brand within each channel-pair; brands alternate across quadrants. Every quadrant now has RAM.</text>
<rect x="30" y="100" width="1120" height="250" rx="14" fill="#10331f"/>
<rect x="470.0" y="116" width="240" height="40" rx="8" fill="#26313a" stroke="#3f5a48" stroke-width="2"/>
<text x="590.0" y="142" font-size="20" font-weight="bold" fill="#cfe3d6" text-anchor="middle">EPYC CPU  —  Socket P0</text>
<rect x="50.0" y="190" width="124.5" height="108" rx="6" fill="#2f6d9e" stroke="#8fc7ef" stroke-width="3"/>
<text x="112.2" y="222" font-size="26" font-weight="bold" fill="#ffffff" text-anchor="middle">A0</text>
<text x="112.2" y="248" font-size="17" fill="#ffffff" text-anchor="middle">Kingston</text>
<rect x="186.5" y="190" width="124.5" height="108" rx="6" fill="#2f6d9e" stroke="#8fc7ef" stroke-width="3"/>
<text x="248.8" y="222" font-size="26" font-weight="bold" fill="#ffffff" text-anchor="middle">B0</text>
<text x="248.8" y="248" font-size="17" fill="#ffffff" text-anchor="middle">Kingston</text>
<rect x="323.0" y="190" width="124.5" height="108" rx="6" fill="#8a4bab" stroke="#d5a6ee" stroke-width="3"/>
<text x="385.2" y="222" font-size="26" font-weight="bold" fill="#ffffff" text-anchor="middle">C0</text>
<text x="385.2" y="248" font-size="17" fill="#ffffff" text-anchor="middle">SK Hynix</text>
<rect x="459.5" y="190" width="124.5" height="108" rx="6" fill="#8a4bab" stroke="#d5a6ee" stroke-width="3"/>
<text x="521.8" y="222" font-size="26" font-weight="bold" fill="#ffffff" text-anchor="middle">D0</text>
<text x="521.8" y="248" font-size="17" fill="#ffffff" text-anchor="middle">SK Hynix</text>
<rect x="596.0" y="190" width="124.5" height="108" rx="6" fill="#2f6d9e" stroke="#8fc7ef" stroke-width="3"/>
<text x="658.2" y="222" font-size="26" font-weight="bold" fill="#ffffff" text-anchor="middle">E0</text>
<text x="658.2" y="248" font-size="17" fill="#ffffff" text-anchor="middle">Kingston</text>
<rect x="732.5" y="190" width="124.5" height="108" rx="6" fill="#2f6d9e" stroke="#8fc7ef" stroke-width="3"/>
<text x="794.8" y="222" font-size="26" font-weight="bold" fill="#ffffff" text-anchor="middle">F0</text>
<text x="794.8" y="248" font-size="17" fill="#ffffff" text-anchor="middle">Kingston</text>
<rect x="869.0" y="190" width="124.5" height="108" rx="6" fill="#8a4bab" stroke="#d5a6ee" stroke-width="3"/>
<text x="931.2" y="222" font-size="26" font-weight="bold" fill="#ffffff" text-anchor="middle">G0</text>
<text x="931.2" y="248" font-size="17" fill="#ffffff" text-anchor="middle">SK Hynix</text>
<rect x="1005.5" y="190" width="124.5" height="108" rx="6" fill="#8a4bab" stroke="#d5a6ee" stroke-width="3"/>
<text x="1067.8" y="222" font-size="26" font-weight="bold" fill="#ffffff" text-anchor="middle">H0</text>
<text x="1067.8" y="248" font-size="17" fill="#ffffff" text-anchor="middle">SK Hynix</text>
<text x="180.5" y="320" font-size="15" fill="#9fb7a8" text-anchor="middle">Quad A/B - Kingston pair</text>
<text x="453.5" y="320" font-size="15" fill="#9fb7a8" text-anchor="middle">Quad C/D - Hynix pair</text>
<text x="726.5" y="320" font-size="15" fill="#9fb7a8" text-anchor="middle">Quad E/F - Kingston pair</text>
<text x="999.5" y="320" font-size="15" fill="#9fb7a8" text-anchor="middle">Quad G/H - Hynix pair</text>
<rect x="34" y="366" width="20" height="20" rx="4" fill="#2f6d9e" stroke="#8fc7ef" stroke-width="2"/>
<text x="64" y="382" font-size="18" fill="#282828">Kingston 16 GB</text>
<rect x="254" y="366" width="20" height="20" rx="4" fill="#8a4bab" stroke="#d5a6ee" stroke-width="2"/>
<text x="284" y="382" font-size="18" fill="#282828">SK Hynix 16 GB</text>
<text x="34" y="416" font-size="19" fill="#5a636c">Result: with all channels populated, the system merged into one balanced 128 GB memory pool.</text>
</svg>